<?xml version="1.0" encoding="UTF-8" standalone="no"?>
<svg
   xmlns:dc="http://purl.org/dc/elements/1.1/"
   xmlns:cc="http://creativecommons.org/ns#"
   xmlns:rdf="http://www.w3.org/1999/02/22-rdf-syntax-ns#"
   xmlns:svg="http://www.w3.org/2000/svg"
   xmlns="http://www.w3.org/2000/svg"
   xmlns:sodipodi="http://sodipodi.sourceforge.net/DTD/sodipodi-0.dtd"
   xmlns:inkscape="http://www.inkscape.org/namespaces/inkscape"
   viewBox="0 0 512 512"
   version="1.1"
   id="svg4"
   sodipodi:docname="no-smoking.svg"
   inkscape:version="0.92.2 5c3e80d, 2017-08-06">
  <metadata
     id="metadata10">
    <rdf:RDF>
      <cc:Work
         rdf:about="">
        <dc:format>image/svg+xml</dc:format>
        <dc:type
           rdf:resource="http://purl.org/dc/dcmitype/StillImage" />
      </cc:Work>
    </rdf:RDF>
  </metadata>
  <defs
     id="defs8" />
  <sodipodi:namedview
     pagecolor="#ffffff"
     bordercolor="#666666"
     borderopacity="1"
     objecttolerance="10"
     gridtolerance="10"
     guidetolerance="10"
     inkscape:pageopacity="0"
     inkscape:pageshadow="2"
     inkscape:window-width="716"
     inkscape:window-height="480"
     id="namedview6"
     showgrid="false"
     inkscape:zoom="0.4609375"
     inkscape:cx="256"
     inkscape:cy="256"
     inkscape:window-x="0"
     inkscape:window-y="22"
     inkscape:window-maximized="0"
     inkscape:current-layer="svg4" />
  <path
     style="color:#000000;font-style:normal;font-variant:normal;font-weight:normal;font-stretch:normal;font-size:medium;line-height:normal;font-family:sans-serif;font-variant-ligatures:normal;font-variant-position:normal;font-variant-caps:normal;font-variant-numeric:normal;font-variant-alternates:normal;font-feature-settings:normal;text-indent:0;text-align:start;text-decoration:none;text-decoration-line:none;text-decoration-style:solid;text-decoration-color:#000000;letter-spacing:normal;word-spacing:normal;text-transform:none;writing-mode:lr-tb;direction:ltr;text-orientation:mixed;dominant-baseline:auto;baseline-shift:baseline;text-anchor:start;white-space:normal;shape-padding:0;clip-rule:nonzero;display:inline;overflow:visible;visibility:visible;opacity:1;isolation:auto;mix-blend-mode:normal;color-interpolation:sRGB;color-interpolation-filters:linearRGB;solid-color:#000000;solid-opacity:1;vector-effect:none;fill-opacity:1;fill-rule:nonzero;stroke:none;stroke-width:1;stroke-linecap:butt;stroke-linejoin:miter;stroke-miterlimit:4;stroke-dasharray:none;stroke-dashoffset:0;stroke-opacity:1;color-rendering:auto;image-rendering:auto;shape-rendering:auto;text-rendering:auto;enable-background:accumulate"
     d="M 256,47.5 C 140.82991,47.5 47.5,140.82991 47.5,256 47.5,371.17009 140.82991,464.5 256,464.5 371.17009,464.5 464.5,371.17009 464.5,256 464.5,140.82991 371.17009,47.5 256,47.5 Z m 0,1 c 114.62991,0 207.5,92.87009 207.5,207.5 0,114.62991 -92.87009,207.5 -207.5,207.5 C 141.37009,463.5 48.5,370.62991 48.5,256 48.5,141.37009 141.37009,48.5 256,48.5 Z m 16,47 c -6.15,0 -14.72625,2.746447 -21.79883,9.62891 -7.07258,6.88246 -12.60156,17.90947 -12.60156,34.37109 0,17.67143 9.1555,31.3971 26.00781,38.46094 l 0.002,0.002 h 0.004 c 4.04776,1.63838 8.06197,2.78443 11.58594,3.50195 -3.18126,9.82151 -3.46293,21.84374 1.88672,29.7168 4.55486,6.7305 9.75538,10.09624 15.42578,11.73633 5.67078,1.6402 11.79163,1.58203 18.28906,1.58203 h 3.5 c 26.28479,0 34.64549,1.22705 38.78906,3.1543 2.75387,1.30554 4.30738,3.05217 5.23047,5.50976 0.92359,2.45891 1.17969,5.65666 1.17969,9.73633 V 244.5 h 17 v -1.59961 c 0,-3.5453 0.0575,-9.31294 -1.92578,-15.14844 -1.98317,-5.8351 -6.04021,-11.74893 -14.16211,-15.50586 h -0.002 C 351.45228,208.07319 338.10711,207.5 314.5,207.5 h -3.60156 -0.002 c -6.33392,0.0499 -10.26279,-0.2343 -13.05273,-1.23242 -2.78784,-0.99738 -4.50476,-2.6859 -6.52734,-5.64453 l -0.002,-0.002 c -9.2e-4,-0.001 -0.001,-0.003 -0.002,-0.004 -1.26194,-1.89873 -1.55803,-5.50618 -0.88281,-9.4961 0.6757,-3.99277 2.28369,-8.36509 4.58593,-11.84375 l 0.002,-0.002 c 1.70177,-2.55442 1.91206,-5.9454 0.42187,-8.71289 -1.48663,-2.76088 -4.34897,-4.45654 -7.42187,-4.5625 h -0.01 H 288 c 0.0292,0 -0.15522,-0.002 -0.43164,-0.0117 -0.27642,-0.01 -0.67854,-0.0285 -1.18555,-0.0625 -1.01402,-0.068 -2.44993,-0.19745 -4.16015,-0.44531 -3.42045,-0.49572 -7.93256,-1.46392 -12.32618,-3.33985 h -0.002 C 259.42887,157.69766 254.59961,150.34848 254.59961,139.5 c 0,-12.79083 4.16119,-19.48726 8.39648,-23.04102 2.11765,-1.77687 4.26416,-2.76816 5.93946,-3.31445 0.83764,-0.27314 1.55782,-0.43622 2.09375,-0.5293 0.53592,-0.0931 0.91653,-0.11523 0.9707,-0.11523 4.67273,0 8.5,-3.82727 8.5,-8.5 0,-4.672727 -3.82727,-8.5 -8.5,-8.5 z m 0,1 c 4.12727,0 7.5,3.372727 7.5,7.5 0,4.12727 -3.37273,7.5 -7.5,7.5 -0.19583,0 -0.56288,0.0302 -1.14258,0.13086 -0.5797,0.10068 -1.34311,0.27315 -2.23047,0.5625 -1.7747,0.57871 -4.04108,1.62492 -6.27343,3.49805 -4.46471,3.74625 -8.75391,10.79942 -8.75391,23.80859 0,11.15152 5.16996,19.00352 15.9043,23.56055 4.50638,1.92407 9.09466,2.90587 12.57421,3.41015 1.73978,0.25214 3.20231,0.38364 4.23829,0.45313 0.51799,0.0347 0.92876,0.0541 1.21484,0.0644 0.27535,0.01 0.39361,0.0116 0.45117,0.0117 2.7271,0.094 5.26476,1.59799 6.57813,4.03711 1.30938,2.43171 1.11993,5.44022 -0.37696,7.68555 v 0.002 c -2.397,3.621 -4.03912,8.09711 -4.73828,12.22851 -0.69916,4.13141 -0.49605,7.92194 1.03907,10.22461 l 0.002,0.002 v 0.002 c 2.07542,3.03721 4.00947,4.95047 7.01953,6.02734 3.00932,1.07661 7.03116,1.34098 13.39453,1.29102 H 314.5 c 23.59153,0 36.84617,0.6259 45.48828,4.65234 l 0.002,0.002 c 7.87701,3.64311 11.72003,9.28041 13.63672,14.91992 1.9167,5.6395 1.87305,11.27148 1.87305,14.82617 V 243.5 h -15 v -0.59961 c 0,-4.12032 -0.24273,-7.4218 -1.24414,-10.08789 -1.00141,-2.66609 -2.79882,-4.67022 -5.74219,-6.06445 h -0.002 v -0.002 C 349.05529,224.67334 340.61599,223.5 314.30078,223.5 h -3.5 c -6.50256,0 -12.5325,0.0418 -18.01172,-1.54297 -5.47922,-1.5848 -10.43008,-4.76929 -14.875,-11.33789 -5.15886,-7.59228 -4.9035,-19.66963 -1.64062,-29.35937 l 0.18359,-0.54102 -0.5625,-0.10937 c -3.56474,-0.69315 -7.73396,-1.88437 -11.90039,-3.57032 l -0.006,-0.002 C 247.44434,170.10028 238.59961,156.82654 238.59961,139.5 c 0,-16.23838 5.42141,-26.96176 12.29883,-33.6543 C 257.77586,99.153162 266.15,96.5 272,96.5 Z m 32,15 c -4.6803,0 -8.5,3.92688 -8.5,8.59961 0,4.67273 3.82727,8.5 8.5,8.5 7.91458,0 11.99685,2.00077 14.32422,4.86523 2.32737,2.86446 2.93094,6.71318 3.58203,10.51954 h 0.002 c 1.2253,7.10673 -0.44934,16.0894 -2.46484,23.29296 -1.00775,3.60178 -2.09636,6.76175 -2.93945,9.03125 -0.42155,1.13476 -0.78183,2.04788 -1.03907,2.68164 -0.12861,0.31689 -0.23269,0.56403 -0.30468,0.73438 -0.036,0.0852 -0.0643,0.14999 -0.084,0.19531 -0.0197,0.0453 -0.0483,0.10629 -0.0234,0.0566 l 0.0117,-0.0215 c -1.48827,2.65764 -1.38264,5.84879 0.10352,8.39648 l 0.002,0.004 0.004,0.004 c 1.4949,2.45591 4.33569,4.14062 7.32617,4.14062 H 352 c 5.43624,0 10.23434,0.23028 14.33789,1.63477 4.10355,1.40448 7.53166,3.95652 10.33008,8.71875 1.5387,2.63081 3.23024,5.90292 4.55664,12.03906 C 382.55123,221.02973 383.5,230.02262 383.5,244 v 0.5 h 17 V 244 c 0,0 0,-0.0246 0,-0.0371 0,-0.003 0,-0.005 0,-0.006 0,0 0,-0.002 0,-0.002 0,0 -0.002,0 -0.002,0 -0.004,-26.00504 -3.0128,-39.31786 -9.16602,-49.8086 l -0.002,-0.002 -0.002,-0.002 C 382.62813,179.6763 368.58283,175.5 352,175.5 h -16.74414 c 2.84869,-8.51537 5.22037,-23.48675 3.33789,-34.48438 -1.6151,-9.48872 -5.51702,-16.88491 -11.40625,-21.89648 C 321.29827,114.10757 313.4418,111.5 304,111.5 Z m 0,1 c 9.2582,0 16.85329,2.54243 22.53906,7.38086 5.68577,4.83843 9.48346,11.99146 11.06836,21.30273 1.87464,10.95181 -0.61293,26.45086 -3.47851,34.65235 L 333.89648,176.5 H 352 c 16.41717,0 29.9707,4.02448 38.4707,18.1582 5.99691,10.22686 8.9706,23.25815 9.01368,48.8418 h -15.00196 c -0.0265,-13.68442 -0.95204,-22.66922 -2.28125,-28.81836 -1.34838,-6.23785 -3.10883,-9.66502 -4.66992,-12.33398 -2.90158,-4.93778 -6.57269,-7.6877 -10.86914,-9.15821 C 362.36566,191.71894 357.46376,191.5 352,191.5 h -29.5 c -2.60858,0 -5.16517,-1.51535 -6.4707,-3.6582 -1.31081,-2.25139 -1.40441,-5.05798 -0.0937,-7.39844 l 0.006,-0.01 0.006,-0.01 c 0.0311,-0.0622 0.0256,-0.0564 0.0469,-0.10547 0.0213,-0.049 0.0509,-0.11752 0.0879,-0.20508 0.074,-0.17511 0.17823,-0.42684 0.30859,-0.74805 0.26074,-0.6424 0.62546,-1.56404 1.05079,-2.70898 0.85065,-2.28987 1.94759,-5.47365 2.96484,-9.10937 2.03433,-7.27084 3.76042,-16.33754 2.48633,-23.73047 v -0.002 c -0.64879,-3.79311 -1.24576,-7.84544 -3.79297,-10.98047 -2.54763,-3.13554 -7.01419,-5.23437 -15.09961,-5.23437 -4.12727,0 -7.5,-3.37273 -7.5,-7.5 0,-4.12727 3.3803,-7.59961 7.5,-7.59961 z m -177.98242,1.51172 -0.35156,0.3164 c -3.97707,3.57595 -7.76195,7.36083 -11.3379,11.3379 l -0.3164,0.35156 271.9707,271.9707 0.35156,-0.3164 c 2.00616,-1.80555 3.91411,-3.61138 5.82032,-5.51758 1.9124,-1.91241 3.71383,-3.91691 5.50781,-5.81055 l 0.33594,-0.35352 z M 126,115.40625 396.60352,386.00977 c -1.69527,1.79978 -3.3837,3.66494 -5.15625,5.4375 -1.78147,1.78146 -3.57282,3.46799 -5.4375,5.15625 L 115.40625,126 c 3.35314,-3.70574 6.88801,-7.24061 10.59375,-10.59375 z M 111.5,255.5 v 49 h 0.5 166.20703 l -49,-49 z m 171.29297,0 49,49 H 352.5 v -49 H 352 Z m 76.70703,0 v 49 h 17 v -49 H 376 Z m 24,0 v 49 h 17 V 304 255.5 Z m -271,1 h 116.29297 l 47,47 H 112.5 Z m 172.70703,0 H 351.5 v 47 h -19.29297 z m 75.29297,0 h 15 v 47 h -15 z m 24,0 h 15 v 47 h -15 z"
     id="path2"
     inkscape:connector-curvature="0" />
</svg>
