<?xml version="1.0" encoding="UTF-8" standalone="no"?>
<svg
   xmlns:dc="http://purl.org/dc/elements/1.1/"
   xmlns:cc="http://creativecommons.org/ns#"
   xmlns:rdf="http://www.w3.org/1999/02/22-rdf-syntax-ns#"
   xmlns:svg="http://www.w3.org/2000/svg"
   xmlns="http://www.w3.org/2000/svg"
   xmlns:sodipodi="http://sodipodi.sourceforge.net/DTD/sodipodi-0.dtd"
   xmlns:inkscape="http://www.inkscape.org/namespaces/inkscape"
   width="512"
   height="512"
   viewBox="0 0 512 512"
   version="1.1"
   id="svg6"
   sodipodi:docname="python.svg"
   inkscape:version="0.92.2 5c3e80d, 2017-08-06">
  <metadata
     id="metadata12">
    <rdf:RDF>
      <cc:Work
         rdf:about="">
        <dc:format>image/svg+xml</dc:format>
        <dc:type
           rdf:resource="http://purl.org/dc/dcmitype/StillImage" />
      </cc:Work>
    </rdf:RDF>
  </metadata>
  <defs
     id="defs10" />
  <sodipodi:namedview
     pagecolor="#ffffff"
     bordercolor="#666666"
     borderopacity="1"
     objecttolerance="10"
     gridtolerance="10"
     guidetolerance="10"
     inkscape:pageopacity="0"
     inkscape:pageshadow="2"
     inkscape:window-width="716"
     inkscape:window-height="480"
     id="namedview8"
     showgrid="false"
     inkscape:zoom="0.4609375"
     inkscape:cx="256"
     inkscape:cy="256"
     inkscape:window-x="0"
     inkscape:window-y="22"
     inkscape:window-maximized="0"
     inkscape:current-layer="svg6" />
  <path
     style="color:#000000;font-style:normal;font-variant:normal;font-weight:normal;font-stretch:normal;font-size:medium;line-height:normal;font-family:sans-serif;font-variant-ligatures:normal;font-variant-position:normal;font-variant-caps:normal;font-variant-numeric:normal;font-variant-alternates:normal;font-feature-settings:normal;text-indent:0;text-align:start;text-decoration:none;text-decoration-line:none;text-decoration-style:solid;text-decoration-color:#000000;letter-spacing:normal;word-spacing:normal;text-transform:none;writing-mode:lr-tb;direction:ltr;text-orientation:mixed;dominant-baseline:auto;baseline-shift:baseline;text-anchor:start;white-space:normal;shape-padding:0;clip-rule:nonzero;display:inline;overflow:visible;visibility:visible;opacity:1;isolation:auto;mix-blend-mode:normal;color-interpolation:sRGB;color-interpolation-filters:linearRGB;solid-color:#000000;solid-opacity:1;vector-effect:none;fill-opacity:1;fill-rule:nonzero;stroke:none;stroke-width:1;stroke-linecap:butt;stroke-linejoin:miter;stroke-miterlimit:4;stroke-dasharray:none;stroke-dashoffset:0;stroke-opacity:1;color-rendering:auto;image-rendering:auto;shape-rendering:auto;text-rendering:auto;enable-background:accumulate"
     d="m 250.61914,63.503906 c -15.856,0.08714 -31.03191,1.405143 -44.36133,3.75586 -19.65305,3.420788 -31.36523,8.741615 -38.16406,16.617187 C 161.29468,91.752801 159.5,102.09833 159.5,115.35938 V 144.5 h 96 v 15 H 128.82031 c -18.01314,0 -34.296552,10.76406 -46.078122,28.08789 -11.781571,17.32384 -19.096402,41.22557 -19.234376,67.65234 -0.002,0.24843 -0.0078,0.50085 -0.0078,0.75977 0,9.5559 0.943712,18.78511 2.695312,27.50195 3.9966,19.90822 12.217186,37.13675 23.15625,49.40821 C 100.29063,345.18161 113.97114,352.5 128.82031,352.5 H 144.5 v -46.43555 c 0,-26.56985 19.95617,-51.26759 49.02734,-56.51172 l 0.0215,-0.004 c 3.69395,-0.66477 7.53041,-1.03296 11.49414,-1.03321 0.001,0 0.003,0 0.004,0 V 248.5 h 100.69921 c 4.54868,0 8.89911,-0.62288 13.04297,-1.77148 19.57493,-5.41974 33.71094,-22.799 33.71094,-44.14649 v -87.22265 c 0,-25.116901 -21.37551,-43.945892 -46.70898,-48.099614 -15.98306,-2.63274 -39.31316,-3.832995 -55.17188,-3.75586 z m 0.006,1 c 15.80328,-0.07686 39.12696,1.126927 55.00391,3.742188 C 330.57543,72.336371 351.5,90.810271 351.5,115.35938 v 87.22265 c 0,20.90651 -13.81345,37.87538 -32.97852,43.18164 -4.06013,1.1254 -8.31806,1.73633 -12.77539,1.73633 h -103.82031 -0.002 v 0.1582 c -2.7138,0.13106 -5.3805,0.38473 -7.96289,0.82618 v -0.0273 l -0.58985,0.10547 C 163.82643,253.88102 143.5,278.98713 143.5,306.06445 V 351.5 h -14.67969 c -14.52083,0 -27.92747,-7.14581 -38.722654,-19.25586 C 79.302471,320.13409 71.142181,303.06247 67.175781,283.30469 65.437382,274.65353 64.5,265.4901 64.5,256 c 0,-0.24641 0.0058,-0.49694 0.0078,-0.75391 v -0.002 c 0.137027,-26.24523 7.413321,-49.96458 19.0625,-67.09375 C 95.219492,171.02123 111.20545,160.5 128.82031,160.5 H 256.5 v -17 h -96 v -28.14062 c 0,-13.17096 1.77668,-23.216181 8.34961,-30.830083 6.57293,-7.613902 18.03432,-12.880979 37.58203,-16.283203 13.26459,-2.339284 28.38936,-3.655331 44.19336,-3.742188 z m -46.96875,27.074219 c -9.88246,0 -17.88477,8.088369 -17.88477,18.021485 0,9.88805 8.02223,17.90234 17.88477,17.90234 h 0.5 v -0.0508 c 9.6254,-0.27165 17.40039,-8.13554 17.40039,-17.85156 0,-9.935881 -8.05294,-18.021485 -17.90039,-18.021485 z m 0,1 c 9.30055,0 16.90039,7.625365 16.90039,17.021485 0,9.3463 -7.58098,16.90234 -16.90039,16.90234 -9.32146,0 -16.88477,-7.55439 -16.88477,-16.90234 0,-9.39689 7.54723,-17.021485 16.88477,-17.021485 z"
     id="path2"
     inkscape:connector-curvature="0" />
  <path
     style="color:#000000;font-style:normal;font-variant:normal;font-weight:normal;font-stretch:normal;font-size:medium;line-height:normal;font-family:sans-serif;font-variant-ligatures:normal;font-variant-position:normal;font-variant-caps:normal;font-variant-numeric:normal;font-variant-alternates:normal;font-feature-settings:normal;text-indent:0;text-align:start;text-decoration:none;text-decoration-line:none;text-decoration-style:solid;text-decoration-color:#000000;letter-spacing:normal;word-spacing:normal;text-transform:none;writing-mode:lr-tb;direction:ltr;text-orientation:mixed;dominant-baseline:auto;baseline-shift:baseline;text-anchor:start;white-space:normal;shape-padding:0;clip-rule:nonzero;display:inline;overflow:visible;visibility:visible;opacity:1;isolation:auto;mix-blend-mode:normal;color-interpolation:sRGB;color-interpolation-filters:linearRGB;solid-color:#000000;solid-opacity:1;vector-effect:none;fill-opacity:1;fill-rule:nonzero;stroke:none;stroke-width:1;stroke-linecap:butt;stroke-linejoin:miter;stroke-miterlimit:4;stroke-dasharray:none;stroke-dashoffset:0;stroke-opacity:1;color-rendering:auto;image-rendering:auto;shape-rendering:auto;text-rendering:auto;enable-background:accumulate"
     d="m 367.5,159.5 v 41.17188 c 0,33.69596 -22.1121,58.01815 -49.06641,62.18554 -2.72041,0.42518 -5.47116,0.63911 -8.22461,0.64063 H 206.34961 c -4.44572,-0.004 -8.87252,0.56357 -13.17383,1.6875 C 173.86156,270.25702 159.5,286.37029 159.5,307.23633 v 87.22851 c 0,12.58364 6.34908,22.59359 15.73438,30.30078 9.38529,7.7072 21.80981,13.15368 34.10546,16.72852 29.40602,8.5547 61.45527,10.0959 96.64454,0 11.69555,-3.34259 23.29739,-8.39133 32.00585,-15.96484 C 346.6987,417.95579 352.5,407.82394 352.5,394.46484 V 367.5 h -96 v -15 h 126.67969 c 25.52216,0 47.53499,-21.5703 58.28711,-52.88672 C 445.96569,286.51327 448.5,271.69384 448.5,256 c 0,-11.80859 -1.43721,-23.11833 -4.06445,-33.57812 -4.603,-18.33317 -12.86465,-34.04474 -23.50196,-45.19141 C 410.29628,166.0838 397.26238,159.5 383.17969,159.5 Z m 1,1 h 14.67969 c 13.7713,0 26.5376,6.42584 37.02929,17.41992 10.49169,10.99408 18.68886,26.55431 23.25586,44.74414 C 446.0716,233.04227 447.5,244.27259 447.5,256 c 0,15.58616 -2.51741,30.29712 -6.97852,43.28711 C 429.8596,330.34069 408.13753,351.5 383.17969,351.5 H 255.5 v 17 h 96 v 25.96484 c 0,13.07091 -5.62373,22.88156 -14.16602,30.31055 -8.54228,7.42899 -20.01755,12.4404 -31.625,15.75781 -35.00873,10.04411 -66.83986,8.50931 -96.08984,0 -12.20734,-3.54916 -24.52104,-8.9622 -33.75,-16.54101 C 166.64018,416.41338 160.5,406.7132 160.5,394.46484 v -87.22851 c 0,-20.40731 13.99887,-36.11293 32.92773,-41.08399 4.21845,-1.10228 8.5618,-1.65862 12.92188,-1.65429 h 103.86133 c 2.80431,-0.002 5.60431,-0.21941 8.375,-0.65235 C 346.03964,259.6011 368.5,234.80591 368.5,200.67188 Z m -60.63281,221.82031 c -9.86299,0 -17.89844,8.00016 -17.89844,17.90039 0,9.92023 8.04752,18.01953 17.89844,18.01953 9.86355,0 17.88086,-8.10044 17.88086,-18.01953 0,-9.88506 -8.02027,-17.90039 -17.88086,-17.90039 z m 0,1 c 9.3194,0 16.88086,7.55546 16.88086,16.90039 0,9.38092 -7.56441,17.01953 -16.88086,17.01953 -9.30308,0 -16.89844,-7.63975 -16.89844,-17.01953 0,-9.35976 7.57543,-16.90039 16.89844,-16.90039 z"
     id="path4"
     inkscape:connector-curvature="0" />
</svg>
